<?xml version="1.0" encoding="UTF-8" standalone="no"?>
<svg
   xmlns:dc="http://purl.org/dc/elements/1.1/"
   xmlns:cc="http://creativecommons.org/ns#"
   xmlns:rdf="http://www.w3.org/1999/02/22-rdf-syntax-ns#"
   xmlns:svg="http://www.w3.org/2000/svg"
   xmlns="http://www.w3.org/2000/svg"
   viewBox="0 0 793.70667 138.66667"
   height="138.66667"
   width="793.70667"
   xml:space="preserve"
   id="svg2"
   version="1.1"><metadata
     id="metadata8"><rdf:RDF><cc:Work
         rdf:about=""><dc:format>image/svg+xml</dc:format><dc:type
           rdf:resource="http://purl.org/dc/dcmitype/StillImage" /></cc:Work></rdf:RDF></metadata><defs
     id="defs6"><clipPath
       id="clipPath18"
       clipPathUnits="userSpaceOnUse"><path
         id="path16"
         d="M 0,104 H 595.28 V 0 H 0 Z" /></clipPath></defs><g
     transform="matrix(1.3333333,0,0,-1.3333333,0,138.66667)"
     id="g10"><g
       id="g12"><g
         clip-path="url(#clipPath18)"
         id="g14"><g
           transform="translate(34.5938,32.8164)"
           id="g20"><path
             id="path22"
             style="fill:#ffffff;fill-opacity:1;fill-rule:nonzero;stroke:none"
             d="m 0,0 c 0.993,0.431 1.857,0.968 2.657,1.65 0.8,0.682 1.458,1.543 1.944,2.548 0.486,1.005 0.708,2.081 0.7,3.23 0.026,0.969 -0.184,1.867 -0.56,2.692 -0.375,0.825 -0.873,1.543 -1.487,2.117 -0.614,0.575 -1.371,1.149 -2.258,1.652 -0.888,0.502 -1.753,0.896 -2.569,1.219 -0.817,0.324 -1.697,0.61 -2.686,0.898 -2.206,0.646 -4.132,1.507 -5.84,2.548 -1.709,1.04 -3.223,2.369 -4.519,4.054 -0.869,1.149 -1.544,2.405 -2.038,3.841 -0.494,1.436 -0.716,2.943 -0.729,4.487 -0.01,2.081 0.353,4.09 1.102,5.957 0.75,1.866 1.792,3.516 3.098,4.916 1.335,1.436 2.841,2.548 4.589,3.337 1.748,0.791 3.644,1.185 5.581,1.185 1.758,0 3.442,-0.358 5.038,-1.005 1.597,-0.646 3.07,-1.579 4.34,-2.763 2.149,-2.009 3.642,-4.522 4.393,-7.465 L 4.161,33.591 c -0.36,1.113 -0.985,2.117 -1.812,3.05 -1.498,1.616 -3.259,2.369 -5.304,2.369 -1.004,0 -1.974,-0.179 -2.895,-0.61 -0.921,-0.431 -1.741,-1.005 -2.456,-1.759 -0.714,-0.753 -1.257,-1.651 -1.636,-2.656 -0.379,-1.004 -0.578,-2.009 -0.584,-3.086 0.01,-0.789 0.121,-1.544 0.325,-2.225 0.204,-0.682 0.495,-1.256 0.844,-1.758 0.349,-0.502 0.762,-0.97 1.319,-1.437 0.558,-0.466 1.058,-0.825 1.58,-1.111 0.522,-0.288 1.087,-0.611 1.789,-0.897 0.701,-0.288 1.324,-0.539 1.825,-0.718 0.501,-0.18 1.146,-0.358 1.841,-0.61 0.694,-0.252 1.232,-0.431 1.582,-0.576 1.203,-0.465 2.383,-1.004 3.471,-1.614 1.087,-0.61 2.137,-1.399 3.13,-2.261 0.992,-0.861 1.862,-1.83 2.596,-2.835 0.733,-1.005 1.286,-2.189 1.717,-3.481 0.43,-1.293 0.653,-2.62 0.638,-4.02 C 12.147,5.238 11.713,3.229 10.87,1.291 10.027,-0.646 8.906,-2.262 7.521,-3.626 6.136,-4.989 4.516,-6.065 2.66,-6.855 c -1.855,-0.791 -3.709,-1.22 -5.646,-1.22 -2.117,0 -4.216,0.467 -6.191,1.399 -1.975,0.934 -3.74,2.261 -5.223,3.984 -1.483,1.722 -2.505,3.66 -3.146,5.849 l 6.624,1.544 c 0.637,-1.615 1.72,-2.943 3.206,-3.948 1.487,-1.005 3.02,-1.508 4.671,-1.508 C -2.02,-0.683 -0.992,-0.432 0,0" /></g><g
           transform="translate(70.6426,39.8857)"
           id="g24"><path
             id="path26"
             style="fill:#ffffff;fill-opacity:1;fill-rule:nonzero;stroke:none"
             d="M 0,0 H 8.143 C 6.777,3.337 5.427,6.963 4.071,10.802 2.714,14.643 1.4,18.267 0.062,21.641 -1.291,18.267 -2.667,14.643 -4.037,10.802 -5.407,6.963 -6.747,3.337 -8.071,0 Z m 21.336,-14.534 h -7.103 l -3.682,8.792 H 0.004 -10.507 l -3.672,-8.792 h -7.103 L 0.031,39.333 Z" /></g><g
           transform="translate(114.458,79.0762)"
           id="g28"><path
             id="path30"
             style="fill:#ffffff;fill-opacity:1;fill-rule:nonzero;stroke:none"
             d="m 0,0 h 1.471 c 1.758,0 3.443,-0.18 5.055,-0.539 1.691,-0.395 3.26,-0.897 4.719,-1.578 1.496,-0.683 2.92,-1.544 4.334,-2.548 0.629,-0.467 1.35,-1.041 2.208,-1.76 l -4.743,-5.131 c -1.342,1.184 -2.815,2.117 -4.432,2.871 -2.162,0.968 -4.519,1.471 -7.066,1.471 -2.619,0 -4.96,-0.503 -7.068,-1.471 -2.144,-0.969 -4.161,-2.405 -5.965,-4.378 -1.805,-1.975 -3.144,-4.127 -4.025,-6.424 -0.931,-2.405 -1.405,-4.952 -1.39,-7.61 -0.015,-2.691 0.473,-5.203 1.371,-7.608 0.884,-2.332 2.228,-4.449 4.047,-6.424 1.818,-1.974 3.783,-3.408 5.98,-4.378 2.233,-0.969 4.591,-1.471 7.066,-1.471 1.974,0 3.848,0.323 5.695,0.969 1.719,0.574 3.438,1.507 5.059,2.763 1.305,1.041 2.402,2.225 3.377,3.481 1.005,1.292 1.845,2.693 2.52,4.2 l 1.389,3.194 h -3.3 -13.238 v 6.639 h 0.575 22.923 c 0.086,-3.768 -0.342,-7.286 -1.4,-10.515 -1.198,-3.805 -3.168,-7.142 -5.874,-10.013 -2.497,-2.656 -5.234,-4.631 -8.169,-5.958 -2.899,-1.328 -6.145,-1.973 -9.661,-1.973 -3.551,0 -6.763,0.645 -9.639,1.973 -2.984,1.327 -5.7,3.302 -8.153,5.958 -2.532,2.691 -4.395,5.634 -5.541,8.756 -1.224,3.158 -1.793,6.64 -1.808,10.407 -0.015,3.769 0.607,7.214 1.816,10.409 1.151,3.122 2.989,6.029 5.537,8.792 2.426,2.657 5.12,4.666 8.126,5.994 2.438,1.112 5.176,1.794 8.154,1.973 z" /></g><g
           transform="translate(145.606,78.7168)"
           id="g32"><path
             id="path34"
             style="fill:#ffffff;fill-opacity:1;fill-rule:nonzero;stroke:none"
             d="M 0,0 H 6.636 L 6.642,-53.365 H 0.005 Z" /></g><g
           transform="translate(178.8276,78.7168)"
           id="g36"><path
             id="path38"
             style="fill:#ffffff;fill-opacity:1;fill-rule:nonzero;stroke:none"
             d="m 0,0 h 11.121 l 0.01,-7.069 H -0.025 -2.106 l 0.002,-2.226 -0.007,-44.07 h -6.637 l 0.008,44.07 -0.002,2.226 h -2.117 -11.157 L -21.991,0 h 11.121 z" /></g><g
           transform="translate(214.5649,78.7168)"
           id="g40"><path
             id="path42"
             style="fill:#ffffff;fill-opacity:1;fill-rule:nonzero;stroke:none"
             d="m 0,0 h 11.121 l 0.01,-7.069 H -0.025 -2.106 l 0.002,-2.226 -0.007,-44.07 h -6.637 l 0.008,44.07 -0.002,2.226 h -2.117 -11.157 L -21.991,0 h 11.121 z" /></g><g
           transform="translate(240.6343,39.8857)"
           id="g44"><path
             id="path46"
             style="fill:#ffffff;fill-opacity:1;fill-rule:nonzero;stroke:none"
             d="M 0,0 H 8.143 C 6.777,3.337 5.427,6.963 4.071,10.802 2.714,14.643 1.4,18.267 0.062,21.641 -1.291,18.267 -2.667,14.643 -4.037,10.802 -5.407,6.963 -6.748,3.337 -8.072,0 Z m 21.336,-14.534 h -7.103 l -3.682,8.792 H 0.004 -10.507 l -3.672,-8.792 h -7.103 L 0.031,39.333 Z" /></g><g
           transform="translate(283.0371,51.1914)"
           id="g48"><path
             id="path50"
             style="fill:#ffffff;fill-opacity:1;fill-rule:nonzero;stroke:none"
             d="m 0,0 0.007,-0.037 c 1.363,0 2.57,0.251 3.592,0.719 0.913,0.466 1.842,1.219 2.825,2.259 1.01,1.079 1.72,2.227 2.128,3.446 0.429,1.113 0.637,2.44 0.625,3.984 0.014,1.4 -0.2,2.692 -0.611,3.876 -0.41,1.005 -1.086,2.082 -2.098,3.231 L 6.461,17.513 C 5.555,18.481 4.375,19.2 2.872,19.737 1.482,20.24 -0.073,20.491 -1.687,20.491 H -7.75 -9.831 L -9.821,18.23 -9.838,2.26 -9.836,0.035 h 2.08 L -5.237,0 h 1.65 z M -16.507,27.525 H -1.01 c 2.476,0 4.826,-0.466 7.016,-1.399 2.076,-0.897 3.934,-2.153 5.59,-3.841 1.683,-1.829 2.849,-3.588 3.536,-5.274 0.701,-1.759 1.07,-3.841 1.078,-6.282 L 16.216,9.223 C 16.213,7.393 15.974,5.67 15.448,4.126 14.945,2.655 14.169,1.111 13.155,-0.504 12.295,-1.795 11.472,-2.729 10.693,-3.338 9.951,-3.949 8.951,-4.523 7.62,-5.061 L 5.305,-6.065 6.647,-8.362 17.148,-25.84 H 8.861 L -2.45,-7.144 h -7.354 l 0.011,-18.696 h -6.672 z" /></g><g
           transform="translate(304.707,78.7168)"
           id="g52"><path
             id="path54"
             style="fill:#ffffff;fill-opacity:1;fill-rule:nonzero;stroke:none"
             d="M 0,0 H 6.637 L 6.643,-53.365 H 0.006 Z" /></g><g
           transform="translate(357.1934,78.7168)"
           id="g56"><path
             id="path58"
             style="fill:#ffffff;fill-opacity:1;fill-rule:nonzero;stroke:none"
             d="M 0,0 0.012,-21.103 -0.01,-32.802 c -0.002,-2.943 -0.483,-5.634 -1.401,-8.111 -0.989,-2.476 -2.444,-4.773 -4.342,-6.818 l 0.007,-0.036 c -2.028,-2.118 -4.168,-3.661 -6.383,-4.63 -2.272,-1.041 -4.758,-1.542 -7.484,-1.542 -2.763,0 -5.3,0.501 -7.575,1.506 -2.391,1.041 -4.492,2.62 -6.367,4.702 -1.94,2.045 -3.391,4.342 -4.34,6.818 -0.947,2.477 -1.398,5.168 -1.396,8.111 L -39.306,-21.103 -39.317,0 h 6.708 l 0.012,-21.103 -0.015,-10.442 0.022,-1.221 c 0.004,-1.866 0.31,-3.625 0.961,-5.311 0.594,-1.579 1.568,-3.087 2.845,-4.486 1.233,-1.364 2.612,-2.37 4.18,-3.051 1.496,-0.682 3.144,-1.041 4.938,-1.041 1.686,0 3.338,0.359 4.928,1.041 1.552,0.681 2.929,1.722 4.142,3.051 1.226,1.256 2.232,2.728 2.93,4.486 0.641,1.686 0.945,3.445 0.94,5.311 l 0.015,1.221 0.015,10.442 L -6.709,0 Z" /></g><g
           transform="translate(379.3262,32.8164)"
           id="g60"><path
             id="path62"
             style="fill:#ffffff;fill-opacity:1;fill-rule:nonzero;stroke:none"
             d="m 0,0 c 0.992,0.431 1.856,0.968 2.656,1.65 0.801,0.682 1.458,1.543 1.945,2.548 0.486,1.005 0.708,2.081 0.7,3.23 0.026,0.969 -0.184,1.867 -0.56,2.692 -0.376,0.825 -0.874,1.543 -1.488,2.117 -0.614,0.575 -1.371,1.149 -2.258,1.652 -0.887,0.502 -1.753,0.896 -2.569,1.219 -0.817,0.324 -1.697,0.61 -2.686,0.898 -2.206,0.646 -4.131,1.507 -5.84,2.548 -1.709,1.04 -3.222,2.369 -4.519,4.054 -0.869,1.149 -1.543,2.405 -2.037,3.841 -0.495,1.436 -0.716,2.943 -0.729,4.487 -0.011,2.081 0.353,4.09 1.102,5.957 0.749,1.866 1.792,3.516 3.097,4.916 1.335,1.436 2.842,2.548 4.589,3.337 1.748,0.791 3.645,1.185 5.582,1.185 1.758,0 3.442,-0.358 5.038,-1.005 1.596,-0.646 3.069,-1.579 4.34,-2.763 2.149,-2.009 3.641,-4.522 4.393,-7.465 L 4.16,33.591 c -0.359,1.113 -0.984,2.117 -1.812,3.05 -1.497,1.616 -3.258,2.369 -5.303,2.369 -1.005,0 -1.974,-0.179 -2.895,-0.61 -0.921,-0.431 -1.742,-1.005 -2.457,-1.759 -0.714,-0.753 -1.257,-1.651 -1.635,-2.656 -0.379,-1.004 -0.579,-2.009 -0.584,-3.086 0.009,-0.789 0.12,-1.544 0.325,-2.225 0.204,-0.682 0.495,-1.256 0.844,-1.758 0.348,-0.502 0.761,-0.97 1.319,-1.437 0.557,-0.466 1.058,-0.825 1.579,-1.111 0.522,-0.288 1.088,-0.611 1.789,-0.897 0.701,-0.288 1.324,-0.539 1.825,-0.718 0.501,-0.18 1.147,-0.358 1.841,-0.61 0.694,-0.252 1.233,-0.431 1.583,-0.576 1.202,-0.465 2.383,-1.004 3.47,-1.614 1.088,-0.61 2.138,-1.399 3.131,-2.261 0.992,-0.861 1.862,-1.83 2.595,-2.835 0.734,-1.005 1.287,-2.189 1.717,-3.481 0.431,-1.293 0.653,-2.62 0.638,-4.02 C 12.146,5.238 11.713,3.229 10.87,1.291 10.026,-0.646 8.905,-2.262 7.521,-3.626 6.136,-4.989 4.515,-6.065 2.66,-6.855 c -1.855,-0.791 -3.709,-1.22 -5.646,-1.22 -2.118,0 -4.216,0.467 -6.192,1.399 -1.974,0.934 -3.74,2.261 -5.222,3.984 -1.483,1.722 -2.505,3.66 -3.146,5.849 l 6.623,1.544 c 0.638,-1.615 1.721,-2.943 3.207,-3.948 1.487,-1.005 3.02,-1.508 4.67,-1.508 C -2.02,-0.683 -0.992,-0.432 0,0" /></g><g
           transform="translate(502.6357,78.8242)"
           id="g64"><path
             id="path66"
             style="fill:#ffffff;fill-opacity:1;fill-rule:nonzero;stroke:none"
             d="m 0,0 -0.018,-7.105 h -19.515 -2.08 l 0.002,-2.225 0.007,-11.665 0.008,-2.26 h 2.081 14.098 l 0.019,-7.106 h -14.134 -2.081 l 0.002,-2.225 0.007,-11.664 0.009,-2.262 h 2.08 19.516 l -0.018,-7.104 h -19.515 -8.717 L -28.232,0 Z" /></g><g
           transform="translate(512.708,78.7168)"
           id="g68"><path
             id="path70"
             style="fill:#ffffff;fill-opacity:1;fill-rule:nonzero;stroke:none"
             d="m 0,0 9.194,-18.877 1.845,-3.769 1.85,3.769 L 22.099,0 h 7.497 l -15.024,-29.752 -0.22,-1.076 0.003,-22.537 H 7.79 L 7.786,-30.828 7.505,-29.752 -7.462,0 Z" /></g><g
           transform="translate(575.1152,78.8242)"
           id="g72"><path
             id="path74"
             style="fill:#ffffff;fill-opacity:1;fill-rule:nonzero;stroke:none"
             d="m 0,0 -0.018,-7.105 h -19.515 -2.08 l 0.002,-2.225 0.007,-11.665 0.008,-2.26 h 2.081 14.098 l 0.019,-7.106 h -14.134 -2.081 l 0.002,-2.225 0.007,-11.664 0.009,-2.262 h 2.08 19.516 l -0.018,-7.104 h -19.515 -8.717 L -28.232,0 Z" /></g><g
           transform="translate(459.2461,84.7217)"
           id="g76"><path
             id="path78"
             style="fill:#ffffff;fill-opacity:1;fill-rule:nonzero;stroke:none"
             d="m 0,0 c -5.505,5.505 -22.787,-2.851 -38.6,-18.665 -15.812,-15.813 -24.169,-33.094 -18.664,-38.599 2.781,-2.78 8.566,-2.02 15.649,1.447 -4.941,-2.049 -8.925,-2.289 -10.971,-0.244 -4.578,4.58 2.258,18.839 15.27,31.85 13.01,13.012 27.27,19.848 31.848,15.269 4.228,-4.227 -1.284,-16.711 -12.399,-28.845 C -2.575,-22.198 5.411,-5.411 0,0" /></g><g
           transform="translate(468.7998,89.0146)"
           id="g80"><path
             id="path82"
             style="fill:#ffffff;fill-opacity:1;fill-rule:nonzero;stroke:none"
             d="m 0,0 c -3.666,3.666 -11.093,2.897 -20.22,-1.316 6.479,2.54 11.682,2.771 14.346,0.106 6.199,-6.199 -3.242,-25.688 -21.087,-43.534 -17.845,-17.845 -37.336,-27.286 -43.535,-21.087 -5.727,5.727 1.542,22.799 16.752,39.437 -20.697,-21.141 -31.426,-43.944 -24.01,-51.361 7.553,-7.553 31.086,3.727 52.556,25.197 C -3.726,-31.086 7.552,-7.553 0,0" /></g><g
           transform="translate(433.707,52.043)"
           id="g84"><path
             id="path86"
             style="fill:#ffffff;fill-opacity:1;fill-rule:nonzero;stroke:none"
             d="m 0,0 c -3.208,0 -5.809,2.602 -5.809,5.81 0,3.208 2.601,5.809 5.809,5.809 0.131,0 0.257,-0.012 0.384,-0.019 -2.049,1.688 -4.675,2.703 -7.538,2.703 -6.549,0 -11.858,-5.311 -11.858,-11.86 0,-6.548 5.309,-11.859 11.858,-11.859 6.54,0 11.842,5.293 11.86,11.828 C 3.65,0.953 1.938,0 0,0" /></g></g></g></g></svg>